<?xml version="1.0" standalone="no"?>
<!DOCTYPE svg PUBLIC "-//W3C//DTD SVG 20010904//EN"
 "http://www.w3.org/TR/2001/REC-SVG-20010904/DTD/svg10.dtd">
<svg version="1.0" xmlns="http://www.w3.org/2000/svg"
 width="512.000000pt" height="512.000000pt" viewBox="0 0 512.000000 512.000000"
 preserveAspectRatio="xMidYMid meet">
<metadata>
Created by potrace 1.14, written by Peter Selinger 2001-2017
</metadata>
<g transform="translate(0.000000,512.000000) scale(0.100000,-0.100000)"
fill="#000000" stroke="none">
<path d="M1916 4874 c-241 -37 -594 -162 -866 -306 -386 -204 -632 -441 -705
-680 -21 -70 -16 -220 9 -283 101 -243 325 -430 636 -530 327 -105 588 -89
686 42 127 169 1 590 -231 771 -62 49 -112 74 -196 100 -111 34 -190 37 -299
12 -128 -31 -167 -31 -191 -1 -10 13 -19 27 -19 31 0 17 88 135 157 209 185
200 443 339 738 397 68 14 139 18 290 19 186 0 204 -2 256 -23 163 -66 223
-168 254 -431 8 -69 22 -187 31 -261 28 -236 72 -385 179 -602 110 -220 197
-342 405 -563 248 -264 330 -370 406 -528 88 -183 110 -373 65 -562 -27 -116
-119 -301 -208 -419 -215 -285 -539 -539 -1161 -911 l-83 -50 7 -40 c10 -61
22 -85 41 -85 25 0 375 157 618 278 743 369 1258 764 1484 1136 114 190 154
424 102 611 -51 183 -138 315 -390 589 -100 110 -246 285 -311 375 -46 65
-170 272 -170 285 0 3 -13 33 -28 68 -48 106 -60 139 -92 248 -45 152 -47 160
-86 325 -88 368 -157 503 -317 625 -106 80 -276 140 -452 160 -126 14 -452 11
-559 -6z"/>
<path d="M3999 4406 c-80 -23 -192 -89 -249 -146 -127 -128 -149 -271 -58
-375 55 -63 107 -87 195 -93 94 -6 150 10 222 63 110 81 185 233 186 375 0 87
-19 128 -74 162 -42 26 -155 33 -222 14z"/>
<path d="M4103 3110 c-49 -16 -76 -56 -68 -105 10 -62 55 -121 155 -205 159
-133 433 -270 612 -306 228 -46 277 57 107 223 -165 161 -393 308 -574 370
-79 27 -184 37 -232 23z"/>
<path d="M1686 2938 c5 -8 2 -9 -9 -5 -10 3 -17 2 -17 -3 0 -6 -9 -10 -20 -10
-14 0 -18 -5 -13 -16 3 -9 8 -12 12 -5 4 5 25 13 48 17 36 5 40 8 28 20 -17
17 -39 19 -29 2z"/>
<path d="M1735 2940 c3 -5 15 -10 26 -10 11 0 17 5 14 10 -3 6 -15 10 -26 10
-11 0 -17 -4 -14 -10z"/>
<path d="M1790 2941 c0 -7 22 -11 52 -11 62 0 58 9 -6 16 -29 3 -46 1 -46 -5z"/>
<path d="M1550 2930 c-20 -6 -21 -8 -5 -8 11 0 34 4 50 8 27 7 27 8 5 8 -14 0
-36 -4 -50 -8z"/>
<path d="M1904 2931 c3 -5 15 -11 26 -14 17 -4 19 -3 9 9 -12 15 -44 20 -35 5z"/>
<path d="M1956 2925 c5 -12 29 -25 54 -30 25 -5 50 -18 50 -26 0 -6 4 -8 9 -4
5 3 13 0 16 -6 4 -5 13 -8 20 -5 7 2 23 -3 36 -11 23 -15 23 -15 8 1 -9 10
-22 19 -30 20 -32 7 -50 19 -45 32 3 8 1 14 -4 14 -6 0 -10 -4 -10 -10 0 -5
-5 -10 -11 -10 -5 0 -7 4 -4 10 4 6 -1 7 -11 3 -11 -4 -15 -2 -11 4 10 15 -18
24 -32 10 -8 -8 -11 -8 -11 0 0 6 -7 13 -14 16 -10 4 -13 1 -10 -8z"/>
<path d="M1456 2912 c-3 -5 8 -6 25 -4 16 2 29 6 29 8 0 8 -49 4 -54 -4z"/>
<path d="M1382 2893 c-13 -3 -26 -11 -29 -19 -3 -8 -9 -11 -14 -8 -11 7 -99
-27 -99 -38 0 -5 -8 -8 -17 -8 -21 -1 -104 -50 -85 -50 7 0 10 -5 6 -11 -4 -8
0 -8 15 0 11 7 20 17 18 23 -1 7 5 12 13 13 22 0 100 38 100 48 0 4 3 6 8 4 4
-3 30 1 57 8 30 8 40 14 26 14 -30 1 -25 6 12 15 21 5 27 4 21 -5 -5 -8 2 -10
24 -7 17 2 33 1 34 -3 2 -5 21 -2 43 6 l40 14 -53 -2 c-30 -2 -56 1 -58 5 -5
8 -22 8 -62 1z"/>
<path d="M1583 2893 c9 -2 23 -2 30 0 6 3 -1 5 -18 5 -16 0 -22 -2 -12 -5z"/>
<path d="M1769 2874 c-8 -10 -8 -14 0 -14 6 0 11 4 11 9 0 5 9 7 20 4 11 -3
20 -3 20 0 0 12 -41 13 -51 1z"/>
<path d="M1856 2867 c8 -5 22 -6 31 -2 9 3 20 0 25 -7 6 -10 8 -9 8 3 0 13 -9
16 -40 15 -27 0 -35 -3 -24 -9z"/>
<path d="M2198 2858 c5 -5 16 -8 23 -6 8 3 3 7 -10 11 -17 4 -21 3 -13 -5z"/>
<path d="M1708 2853 c7 -3 16 -2 19 1 4 3 -2 6 -13 5 -11 0 -14 -3 -6 -6z"/>
<path d="M1428 2843 c7 -3 16 -2 19 1 4 3 -2 6 -13 5 -11 0 -14 -3 -6 -6z"/>
<path d="M2247 2829 c6 -22 20 -26 20 -4 0 8 -6 16 -13 19 -7 3 -10 -2 -7 -15z"/>
<path d="M1395 2830 c-3 -5 -1 -10 4 -10 6 0 11 5 11 10 0 6 -2 10 -4 10 -3 0
-8 -4 -11 -10z"/>
<path d="M2185 2824 c11 -9 29 -20 40 -26 18 -10 18 -9 7 4 -7 9 -9 18 -5 20
4 3 3 3 -4 2 -7 -2 -15 1 -18 6 -4 6 -14 10 -23 10 -15 -1 -14 -3 3 -16z"/>
<path d="M2004 2821 c7 -11 46 -35 46 -28 0 3 -12 12 -26 22 -15 9 -23 12 -20
6z"/>
<path d="M2290 2823 c5 -2 8 -9 5 -13 -3 -5 5 -14 17 -20 22 -11 22 -11 3 5
-11 9 -19 19 -17 23 2 3 -1 7 -7 9 -7 1 -8 0 -1 -4z"/>
<path d="M1575 2810 c-4 -6 -15 -8 -26 -5 -13 4 -19 2 -19 -9 0 -13 5 -14 26
-5 15 5 36 7 47 3 20 -6 20 -5 5 10 -19 19 -25 20 -33 6z"/>
<path d="M1468 2803 c6 -2 18 -2 25 0 6 3 1 5 -13 5 -14 0 -19 -2 -12 -5z"/>
<path d="M2336 2796 c8 -20 49 -45 42 -25 -2 7 -14 19 -26 27 -20 13 -22 13
-16 -2z"/>
<path d="M1314 2790 c-12 -5 -25 -13 -29 -19 -3 -6 -15 -11 -26 -11 -11 0 -17
-4 -14 -10 3 -5 21 -2 43 9 20 11 44 21 52 23 7 2 10 7 5 10 -6 3 -20 2 -31
-2z"/>
<path d="M2077 2770 c10 -11 22 -20 27 -20 5 0 21 -10 35 -22 14 -13 20 -15
12 -6 -7 9 -10 22 -6 28 4 6 -4 10 -18 10 -14 0 -30 7 -37 15 -7 8 -16 15 -21
15 -5 0 -1 -9 8 -20z"/>
<path d="M2250 2786 c0 -3 15 -15 33 -27 23 -17 28 -18 18 -6 -14 18 -51 42
-51 33z"/>
<path d="M1490 2759 c-22 -18 -22 -19 -3 -10 12 6 25 16 28 21 9 15 3 12 -25
-11z"/>
<path d="M2399 2764 c13 -27 36 -45 52 -42 7 2 13 -2 14 -9 0 -7 7 -18 15 -25
12 -11 12 -11 1 5 -7 9 -10 17 -6 17 4 0 2 7 -5 15 -7 8 -16 12 -21 9 -5 -3
-20 7 -35 23 -18 20 -22 22 -15 7z"/>
<path d="M2050 2760 c-9 -6 -10 -10 -3 -10 6 0 15 5 18 10 8 12 4 12 -15 0z"/>
<path d="M1090 2750 c-8 -5 -10 -10 -5 -10 6 0 17 5 25 10 8 5 11 10 5 10 -5
0 -17 -5 -25 -10z"/>
<path d="M1912 2750 c-18 -4 -36 -11 -39 -14 -6 -6 28 -1 97 14 34 8 34 8 5 8
-16 0 -45 -4 -63 -8z"/>
<path d="M1099 2719 l-24 -20 28 17 c15 9 27 18 27 20 0 8 -8 4 -31 -17z"/>
<path d="M1208 2718 c-21 -21 -11 -24 15 -4 10 8 15 16 10 18 -4 3 -16 -3 -25
-14z"/>
<path d="M1803 2725 c0 -8 9 -15 20 -15 11 0 29 -8 41 -17 20 -18 20 -18 0 8
-10 15 -23 25 -27 22 -4 -3 -14 0 -21 6 -9 8 -13 7 -13 -4z"/>
<path d="M1040 2710 c-14 -11 -20 -20 -15 -19 13 0 50 28 44 33 -2 3 -15 -4
-29 -14z"/>
<path d="M1423 2704 l-28 -25 33 22 c17 13 32 24 32 26 0 8 -11 1 -37 -23z"/>
<path d="M2294 2716 c11 -9 27 -16 35 -15 14 0 14 1 1 6 -8 3 -24 10 -35 15
-20 9 -20 9 -1 -6z"/>
<path d="M2345 2720 c6 -8 10 -19 10 -24 0 -5 6 -10 13 -12 7 -1 8 0 2 3 -5 2
-8 8 -5 13 3 4 -3 14 -12 21 -15 12 -16 12 -8 -1z"/>
<path d="M2497 2699 c7 -9 11 -18 8 -21 -3 -3 5 -13 17 -24 16 -13 19 -14 10
-2 -7 9 -9 18 -3 20 5 1 -3 12 -17 23 -17 11 -22 13 -15 4z"/>
<path d="M1758 2693 c7 -3 16 -2 19 1 4 3 -2 6 -13 5 -11 0 -14 -3 -6 -6z"/>
<path d="M2192 2670 c12 -16 25 -30 30 -30 4 0 -4 14 -19 30 -14 17 -28 30
-30 30 -2 0 6 -13 19 -30z"/>
<path d="M1039 2671 l-24 -20 28 3 c28 3 51 16 28 16 -7 0 -9 5 -6 10 10 15 0
12 -26 -9z"/>
<path d="M1708 2674 c-38 -20 -36 -28 2 -9 17 9 30 18 30 20 0 7 -1 6 -32 -11z"/>
<path d="M984 2664 c-18 -14 -18 -14 6 -3 31 14 36 19 24 19 -6 0 -19 -7 -30
-16z"/>
<path d="M1145 2660 c-10 -11 -14 -20 -8 -20 5 0 18 9 28 20 10 11 14 20 8 20
-5 0 -18 -9 -28 -20z"/>
<path d="M1915 2660 c10 -11 20 -20 23 -20 3 0 -3 9 -13 20 -10 11 -20 20 -23
20 -3 0 3 -9 13 -20z"/>
<path d="M2412 2652 c13 -16 25 -25 26 -20 2 4 9 5 14 2 7 -4 8 -2 4 5 -4 6
-11 9 -15 7 -4 -3 -14 4 -21 15 -8 10 -18 19 -23 19 -5 0 2 -13 15 -28z"/>
<path d="M1375 2652 c-24 -20 -75 -94 -75 -108 0 -5 14 12 31 39 21 31 39 47
53 48 11 0 15 3 8 6 -10 4 -10 8 -1 19 15 19 8 17 -16 -4z"/>
<path d="M2602 2605 c30 -30 59 -55 63 -55 4 0 -19 25 -50 55 -31 30 -59 55
-62 55 -4 0 18 -25 49 -55z"/>
<path d="M939 2619 l-24 -20 28 17 c15 9 27 18 27 20 0 8 -8 4 -31 -17z"/>
<path d="M990 2620 c-14 -11 -20 -20 -13 -20 11 0 43 26 43 36 0 7 -4 5 -30
-16z"/>
<path d="M1265 2630 c-27 -7 -28 -8 -5 -8 14 0 34 3 45 8 25 11 2 11 -40 0z"/>
<path d="M1418 2633 c7 -3 16 -2 19 1 4 3 -2 6 -13 5 -11 0 -14 -3 -6 -6z"/>
<path d="M1626 2619 c-23 -18 -29 -19 -44 -7 -15 12 -16 11 -3 -5 12 -15 11
-20 -4 -37 -10 -11 -13 -20 -8 -20 6 0 13 7 17 15 3 8 13 15 21 15 9 0 14 4
11 9 -4 5 6 19 21 30 16 11 25 21 22 21 -4 0 -18 -9 -33 -21z"/>
<path d="M1101 2604 c-12 -15 -21 -32 -20 -38 0 -7 3 -6 6 2 2 6 13 12 23 12
10 0 21 4 24 9 4 5 -4 7 -16 3 -23 -5 -23 -5 -4 16 11 12 16 22 13 22 -3 0
-15 -12 -26 -26z"/>
<path d="M1498 2623 c6 -2 18 -2 25 0 6 3 1 5 -13 5 -14 0 -19 -2 -12 -5z"/>
<path d="M1965 2610 c10 -11 20 -20 23 -20 3 0 -3 9 -13 20 -10 11 -20 20 -23
20 -3 0 3 -9 13 -20z"/>
<path d="M2470 2627 c0 -2 19 -17 43 -33 23 -16 63 -46 89 -66 28 -24 49 -34
53 -28 4 6 1 9 -7 8 -7 -2 -12 3 -10 10 1 8 -2 11 -7 8 -5 -4 -12 -2 -16 4 -3
5 -1 10 5 10 6 0 8 5 4 11 -4 8 -9 7 -15 -2 -6 -11 -13 -9 -31 6 -38 33 -108
80 -108 72z"/>
<path d="M2550 2626 c0 -2 8 -10 18 -17 15 -13 16 -12 3 4 -13 16 -21 21 -21
13z"/>
<path d="M1176 2612 c-3 -5 8 -6 25 -4 16 2 29 6 29 8 0 8 -49 4 -54 -4z"/>
<path d="M2466 2592 c11 -18 30 -43 43 -55 l24 -22 -14 23 c-8 12 -17 22 -22
22 -4 0 -6 3 -4 8 2 4 -7 18 -21 32 l-25 25 19 -33z"/>
<path d="M2253 2581 c6 -17 14 -28 19 -25 4 3 1 16 -8 30 -21 32 -25 30 -11
-5z"/>
<path d="M935 2580 c-4 -6 -15 -8 -24 -5 -11 3 -25 -3 -36 -15 -16 -18 -17
-20 -2 -14 9 3 17 10 17 16 0 5 9 7 19 3 11 -3 22 -1 26 5 3 6 11 8 16 5 5 -4
-2 -18 -16 -33 -13 -14 -22 -28 -20 -30 8 -8 53 53 48 65 -6 16 -19 17 -28 3z"/>
<path d="M2587 2579 c7 -7 15 -10 18 -7 3 3 -2 9 -12 12 -14 6 -15 5 -6 -5z"/>
<path d="M1982 2564 c-11 -11 -10 -14 3 -14 8 0 15 4 15 9 0 4 12 6 28 3 33
-6 27 3 -8 11 -15 3 -30 0 -38 -9z"/>
<path d="M2100 2570 c-9 -6 -10 -10 -3 -10 6 0 15 5 18 10 8 12 4 12 -15 0z"/>
<path d="M1689 2543 c14 -16 39 -44 55 -63 19 -24 24 -27 15 -10 -14 28 -79
100 -90 100 -4 0 5 -12 20 -27z"/>
<path d="M2178 2563 c7 -3 16 -2 19 1 4 3 -2 6 -13 5 -11 0 -14 -3 -6 -6z"/>
<path d="M995 2529 c-16 -10 -25 -19 -19 -19 7 0 22 9 35 20 30 24 23 24 -16
-1z"/>
<path d="M1920 2534 c-33 -13 -33 -14 -5 -8 17 3 34 10 40 15 11 11 8 11 -35
-7z"/>
<path d="M1547 2522 c-19 -20 -22 -32 -9 -32 5 0 14 11 20 25 14 30 11 31 -11
7z"/>
<path d="M2027 2517 c3 -15 9 -27 14 -27 13 0 11 13 -5 35 -13 18 -14 18 -9
-8z"/>
<path d="M2332 2530 c14 -4 32 -11 40 -15 7 -3 4 1 -6 9 -11 9 -29 16 -40 15
-17 -1 -16 -2 6 -9z"/>
<path d="M2670 2536 c0 -2 8 -10 18 -17 15 -13 16 -12 3 4 -13 16 -21 21 -21
13z"/>
<path d="M1047 2510 c-3 -11 -2 -20 3 -20 4 0 10 9 13 20 3 11 2 20 -3 20 -4
0 -10 -9 -13 -20z"/>
<path d="M1280 2515 c0 -8 2 -15 4 -15 2 0 6 7 10 15 3 8 1 15 -4 15 -6 0 -10
-7 -10 -15z"/>
<path d="M819 2493 l-24 -28 28 24 c25 23 32 31 24 31 -2 0 -14 -12 -28 -27z"/>
<path d="M2290 2511 c0 -5 5 -13 10 -16 6 -3 10 -2 10 4 0 5 -4 13 -10 16 -5
3 -10 2 -10 -4z"/>
<path d="M1857 2499 c-9 -5 -28 -20 -40 -33 -13 -13 -30 -25 -38 -28 -8 -3
-11 -8 -7 -12 3 -4 23 8 45 27 21 18 47 39 58 45 11 6 16 11 10 11 -5 0 -18
-4 -28 -10z"/>
<path d="M2533 2492 c10 -10 14 -22 10 -25 -3 -4 -1 -7 5 -7 7 0 12 3 12 8 -1
11 -26 42 -35 42 -5 0 -1 -8 8 -18z"/>
<path d="M829 2473 l-24 -28 28 24 c25 23 32 31 24 31 -2 0 -14 -12 -28 -27z"/>
<path d="M892 2480 c-7 -11 -8 -20 -3 -20 9 0 24 30 18 36 -1 2 -8 -6 -15 -16z"/>
<path d="M930 2479 c-17 -13 -18 -17 -5 -10 33 17 51 31 40 31 -5 0 -21 -10
-35 -21z"/>
<path d="M2713 2489 c9 -5 17 -17 17 -25 0 -8 7 -17 15 -20 8 -4 13 -10 10
-14 -3 -5 4 -15 15 -23 11 -7 17 -17 13 -20 -3 -4 -1 -7 5 -7 17 0 15 18 -4
28 -9 5 -14 11 -12 13 5 7 -54 79 -66 79 -6 0 -3 -5 7 -11z"/>
<path d="M1030 2461 c-12 -24 -13 -34 -1 -27 9 6 22 46 15 46 -2 0 -8 -9 -14
-19z"/>
<path d="M2040 2470 c0 -5 5 -10 10 -10 6 0 10 5 10 10 0 6 -4 10 -10 10 -5 0
-10 -4 -10 -10z"/>
<path d="M2305 2470 c3 -5 8 -10 11 -10 2 0 4 5 4 10 0 6 -5 10 -11 10 -5 0
-7 -4 -4 -10z"/>
<path d="M1517 2450 c-3 -11 -1 -20 4 -20 5 0 9 9 9 20 0 11 -2 20 -4 20 -2 0
-6 -9 -9 -20z"/>
<path d="M2670 2464 c0 -17 17 -36 24 -26 3 5 -1 15 -9 22 -8 7 -15 9 -15 4z"/>
<path d="M864 2438 c-3 -4 -2 -8 3 -8 4 0 1 -5 -7 -10 -8 -5 -10 -10 -5 -10 6
0 20 8 33 18 23 17 23 18 2 18 -12 0 -24 -4 -26 -8z"/>
<path d="M2310 2439 c0 -5 5 -7 10 -4 6 3 10 8 10 11 0 2 -4 4 -10 4 -5 0 -10
-5 -10 -11z"/>
<path d="M2540 2436 c7 -7 13 -7 20 0 6 6 3 10 -10 10 -13 0 -16 -4 -10 -10z"/>
<path d="M1244 2429 c-3 -5 -17 -10 -32 -10 -18 -1 -21 -3 -9 -6 10 -3 26 -1
35 3 9 4 25 6 35 5 23 -3 22 5 -3 12 -11 3 -23 1 -26 -4z"/>
<path d="M2051 2384 c0 -31 3 -54 6 -50 10 9 12 106 3 106 -4 0 -8 -25 -9 -56z"/>
<path d="M769 2426 c-2 -2 -5 -46 -3 -46 1 0 9 11 17 23 13 20 13 24 1 24 -8
0 -14 -1 -15 -1z"/>
<path d="M1308 2423 c6 -2 18 -2 25 0 6 3 1 5 -13 5 -14 0 -19 -2 -12 -5z"/>
<path d="M1425 2402 c28 -9 56 -21 63 -25 16 -11 32 0 32 21 -1 16 -2 16 -14
0 -7 -10 -16 -15 -20 -11 -9 10 -78 33 -96 32 -8 0 8 -8 35 -17z"/>
<path d="M2568 2413 c6 -2 9 -10 6 -15 -4 -7 -2 -8 5 -4 13 9 5 26 -12 25 -9
0 -8 -2 1 -6z"/>
<path d="M2735 2396 c10 -14 19 -26 22 -26 7 0 -17 39 -28 46 -6 3 -3 -5 6
-20z"/>
<path d="M1246 2394 c-8 -22 -7 -57 3 -72 5 -9 8 6 8 37 -1 56 -2 59 -11 35z"/>
<path d="M1148 2393 c7 -3 16 -2 19 1 4 3 -2 6 -13 5 -11 0 -14 -3 -6 -6z"/>
<path d="M1074 2364 c-27 -14 -53 -30 -59 -36 -5 -6 18 4 53 22 54 28 72 40
58 40 -1 0 -25 -12 -52 -26z"/>
<path d="M2653 2344 c27 -27 62 -70 79 -96 33 -51 47 -63 27 -25 -22 43 -88
123 -121 146 -25 18 -21 12 15 -25z"/>
<path d="M814 2358 c-12 -14 -13 -18 -3 -10 9 6 20 8 24 4 5 -4 5 -2 2 5 -4 6
-1 14 5 16 8 3 8 6 2 6 -6 1 -19 -9 -30 -21z"/>
<path d="M1007 2374 c-4 -4 -7 -14 -7 -23 0 -11 3 -12 11 -4 6 6 10 16 7 23
-2 6 -7 8 -11 4z"/>
<path d="M2577 2368 c5 -7 9 -27 8 -45 -1 -18 3 -29 8 -26 7 4 6 21 -3 81 0 1
-5 2 -11 2 -7 0 -8 -4 -2 -12z"/>
<path d="M2718 2365 c5 -11 12 -27 15 -35 5 -13 6 -13 6 1 1 8 -6 24 -15 35
-15 19 -15 19 -6 -1z"/>
<path d="M720 2350 c-6 -11 -8 -20 -6 -20 3 0 10 9 16 20 6 11 8 20 6 20 -3 0
-10 -9 -16 -20z"/>
<path d="M2770 2365 c0 -10 40 -75 47 -75 2 0 -6 17 -18 38 -28 45 -29 47 -29
37z"/>
<path d="M2798 2361 c8 -4 13 -11 13 -15 -1 -3 1 -6 4 -6 3 0 8 0 11 0 4 0 1
7 -6 15 -7 8 -18 15 -24 15 -7 0 -6 -4 2 -9z"/>
<path d="M2337 2335 c-4 -8 -2 -17 3 -20 6 -4 10 3 10 14 0 25 -6 27 -13 6z"/>
<path d="M2140 2330 c-28 -6 -24 -7 22 -6 32 1 59 4 62 7 7 7 -47 6 -84 -1z"/>
<path d="M2240 2327 c3 -3 17 -8 30 -10 14 -3 34 -8 45 -12 19 -6 19 -6 2 5
-19 12 -87 27 -77 17z"/>
<path d="M769 2293 l-24 -28 28 24 c25 23 32 31 24 31 -2 0 -14 -12 -28 -27z"/>
<path d="M980 2310 c-13 -8 -12 -10 3 -10 9 0 17 5 17 10 0 12 -1 12 -20 0z"/>
<path d="M2058 2313 c6 -2 18 -2 25 0 6 3 1 5 -13 5 -14 0 -19 -2 -12 -5z"/>
<path d="M805 2300 c-3 -5 -1 -10 4 -10 6 0 11 5 11 10 0 6 -2 10 -4 10 -3 0
-8 -4 -11 -10z"/>
<path d="M2751 2280 c6 -16 15 -32 20 -35 4 -3 3 8 -2 25 -6 16 -15 32 -20 35
-4 3 -3 -8 2 -25z"/>
<path d="M2846 2297 c3 -10 9 -15 12 -12 3 3 0 11 -7 18 -10 9 -11 8 -5 -6z"/>
<path d="M2380 2281 c19 -11 42 -23 50 -27 8 -4 27 -18 43 -32 15 -14 27 -22
27 -17 0 5 7 -1 16 -13 31 -44 87 -52 81 -11 -5 30 -17 35 -17 6 0 -15 -4 -27
-10 -27 -5 0 -10 5 -10 11 0 5 -4 8 -9 4 -6 -3 -15 3 -21 14 -5 11 -21 26 -34
33 -13 7 -41 25 -62 39 -21 14 -50 29 -64 33 -18 5 -16 1 10 -13z"/>
<path d="M1262 2270 c0 -14 2 -19 5 -12 2 6 2 18 0 25 -3 6 -5 1 -5 -13z"/>
<path d="M797 2273 c-4 -3 -7 -11 -7 -17 0 -6 5 -5 12 2 6 6 9 14 7 17 -3 3
-9 2 -12 -2z"/>
<path d="M924 2264 c-18 -14 -18 -15 4 -4 12 6 22 13 22 15 0 8 -5 6 -26 -11z"/>
<path d="M733 2238 c-15 -20 -25 -38 -20 -38 3 0 12 11 21 25 17 26 16 35 -1
13z"/>
<path d="M1002 2225 c0 -16 2 -22 5 -12 2 9 2 23 0 30 -3 6 -5 -1 -5 -18z"/>
<path d="M660 2230 c0 -5 5 -10 11 -10 5 0 7 5 4 10 -3 6 -8 10 -11 10 -2 0
-4 -4 -4 -10z"/>
<path d="M787 2233 c-4 -3 -7 -11 -7 -17 0 -6 5 -5 12 2 6 6 9 14 7 17 -3 3
-9 2 -12 -2z"/>
<path d="M874 2218 l-19 -23 25 20 c14 11 27 21 29 22 2 2 0 3 -6 3 -5 0 -18
-10 -29 -22z"/>
<path d="M1272 2228 c2 -6 10 -14 16 -16 7 -2 10 2 6 12 -7 18 -28 22 -22 4z"/>
<path d="M2315 2210 c3 -5 8 -10 11 -10 2 0 4 5 4 10 0 6 -5 10 -11 10 -5 0
-7 -4 -4 -10z"/>
<path d="M690 2201 c0 -6 4 -13 10 -16 6 -3 7 1 4 9 -7 18 -14 21 -14 7z"/>
<path d="M1295 2190 c3 -5 8 -10 11 -10 2 0 4 5 4 10 0 6 -5 10 -11 10 -5 0
-7 -4 -4 -10z"/>
<path d="M2304 2192 c4 -7 2 -12 -5 -12 -7 0 -9 -3 -6 -7 4 -3 -1 -11 -10 -18
-13 -9 -13 -14 -3 -20 9 -5 11 -4 6 3 -4 7 -3 12 3 12 17 0 33 38 19 46 -7 4
-8 3 -4 -4z"/>
<path d="M640 2180 c0 -5 5 -10 11 -10 5 0 7 5 4 10 -3 6 -8 10 -11 10 -2 0
-4 -4 -4 -10z"/>
<path d="M825 2170 c-10 -11 -14 -20 -9 -20 5 0 15 9 22 20 7 11 11 20 9 20
-2 0 -12 -9 -22 -20z"/>
<path d="M1004 2179 c-3 -6 -1 -16 5 -22 8 -8 11 -5 11 11 0 24 -5 28 -16 11z"/>
<path d="M2777 2174 c3 -7 9 -14 14 -14 14 0 10 17 -5 23 -10 4 -13 1 -9 -9z"/>
<path d="M1215 2170 c-27 -7 -27 -8 -5 -8 14 0 39 4 55 8 27 7 27 8 5 8 -14 0
-38 -4 -55 -8z"/>
<path d="M673 2126 c0 -17 1 -24 4 -16 3 8 9 22 14 31 5 10 4 16 -4 16 -7 0
-13 -14 -14 -31z"/>
<path d="M1117 2131 c-42 -27 -46 -36 -7 -15 19 11 44 22 55 25 l20 7 -20 0
c-11 0 -32 -7 -48 -17z"/>
<path d="M2793 2135 c-3 -9 -3 -18 -1 -21 3 -3 8 4 11 16 6 23 -1 27 -10 5z"/>
<path d="M2891 2134 c0 -11 3 -14 6 -6 3 7 2 16 -1 19 -3 4 -6 -2 -5 -13z"/>
<path d="M625 2129 c-4 -6 -5 -12 -2 -15 2 -3 7 2 10 11 7 17 1 20 -8 4z"/>
<path d="M2570 2131 c0 -10 19 -25 25 -20 1 2 -3 10 -11 17 -8 7 -14 8 -14 3z"/>
<path d="M2241 2106 c-23 -24 -23 -25 -2 -19 11 3 19 9 16 13 -3 5 1 10 7 13
7 2 10 7 7 11 -3 3 -16 -5 -28 -18z"/>
<path d="M2610 2114 c0 -7 14 -27 31 -45 17 -18 37 -45 45 -61 16 -31 23 -36
20 -13 -1 8 -20 36 -42 61 -21 26 -42 51 -46 58 -6 8 -8 8 -8 0z"/>
<path d="M1020 2094 c0 -8 5 -12 10 -9 6 3 10 10 10 16 0 5 -4 9 -10 9 -5 0
-10 -7 -10 -16z"/>
<path d="M2901 2094 c0 -11 3 -14 6 -6 3 7 2 16 -1 19 -3 4 -6 -2 -5 -13z"/>
<path d="M610 2090 c0 -5 5 -10 10 -10 6 0 10 5 10 10 0 6 -4 10 -10 10 -5 0
-10 -4 -10 -10z"/>
<path d="M760 2085 c-6 -8 -10 -19 -8 -24 1 -5 11 2 21 15 19 26 8 34 -13 9z"/>
<path d="M2817 2082 c-18 -19 -23 -77 -9 -86 5 -3 7 12 5 34 -5 53 14 60 34
13 9 -21 16 -43 16 -50 0 -7 4 -10 8 -7 8 5 -21 87 -33 92 -5 2 -6 8 -2 13 9
15 -2 10 -19 -9z"/>
<path d="M1043 2076 c4 -11 1 -13 -11 -10 -14 5 -15 4 -2 -5 21 -15 27 -14 33
9 3 13 0 20 -10 20 -9 0 -13 -6 -10 -14z"/>
<path d="M2560 2080 c0 -5 5 -10 11 -10 5 0 7 5 4 10 -3 6 -8 10 -11 10 -2 0
-4 -4 -4 -10z"/>
<path d="M600 2061 c0 -6 5 -13 10 -16 6 -3 10 1 10 9 0 9 -4 16 -10 16 -5 0
-10 -4 -10 -9z"/>
<path d="M2230 2066 c0 -3 9 -10 20 -16 11 -6 20 -8 20 -6 0 3 -9 10 -20 16
-11 6 -20 8 -20 6z"/>
<path d="M2912 2050 c0 -14 2 -19 5 -12 2 6 2 18 0 25 -3 6 -5 1 -5 -13z"/>
<path d="M662 2025 c0 -16 2 -22 5 -12 2 9 2 23 0 30 -3 6 -5 -1 -5 -18z"/>
<path d="M780 2029 c0 -11 5 -17 10 -14 6 3 10 13 10 21 0 8 -4 14 -10 14 -5
0 -10 -9 -10 -21z"/>
<path d="M2288 2038 c7 -9 26 -21 42 -28 17 -7 30 -16 30 -21 0 -5 5 -9 11 -9
12 0 79 -69 79 -82 0 -5 4 -6 10 -3 6 4 5 13 -2 25 -7 11 -14 18 -15 16 -2 -1
-21 13 -42 33 -41 39 -135 96 -113 69z"/>
<path d="M726 2014 c-10 -14 -16 -28 -13 -30 2 -3 12 7 21 22 10 14 16 28 13
30 -2 3 -12 -7 -21 -22z"/>
<path d="M986 2024 c-9 -8 -16 -20 -16 -27 0 -6 5 -5 13 4 6 8 19 20 27 27 8
7 9 12 3 12 -6 0 -19 -7 -27 -16z"/>
<path d="M1066 2022 c-3 -5 11 -24 31 -43 l36 -34 -22 33 c-12 17 -27 32 -32
32 -6 0 -7 5 -4 10 3 6 4 10 1 10 -3 0 -7 -4 -10 -8z"/>
<path d="M621 2004 c0 -11 3 -14 6 -6 3 7 2 16 -1 19 -3 4 -6 -2 -5 -13z"/>
<path d="M801 1994 c0 -11 3 -14 6 -6 3 7 2 16 -1 19 -3 4 -6 -2 -5 -13z"/>
<path d="M2961 1994 c0 -11 3 -14 6 -6 3 7 2 16 -1 19 -3 4 -6 -2 -5 -13z"/>
<path d="M2535 1990 c3 -5 8 -10 11 -10 2 0 4 5 4 10 0 6 -5 10 -11 10 -5 0
-7 -4 -4 -10z"/>
<path d="M940 1965 c-8 -9 -8 -15 -2 -15 12 0 26 19 19 26 -2 2 -10 -2 -17
-11z"/>
<path d="M2515 1970 c-8 -13 -16 -54 -9 -47 3 3 6 9 6 14 1 4 8 13 16 19 10 7
11 13 4 18 -6 3 -13 2 -17 -4z"/>
<path d="M2716 1972 c-3 -5 3 -18 14 -29 10 -12 16 -24 13 -27 -4 -3 -1 -6 5
-6 16 0 15 4 -7 41 -10 17 -21 26 -25 21z"/>
<path d="M2875 1970 c-3 -5 -1 -10 4 -10 6 0 11 5 11 10 0 6 -2 10 -4 10 -3 0
-8 -4 -11 -10z"/>
<path d="M800 1960 c0 -5 5 -10 10 -10 6 0 10 5 10 10 0 6 -4 10 -10 10 -5 0
-10 -4 -10 -10z"/>
<path d="M2971 1954 c0 -11 3 -14 6 -6 3 7 2 16 -1 19 -3 4 -6 -2 -5 -13z"/>
<path d="M1155 1930 c9 -10 20 -18 24 -17 3 0 16 -4 29 -11 38 -21 24 -4 -18
23 -48 30 -59 32 -35 5z"/>
<path d="M2885 1933 c5 -10 10 -33 13 -52 3 -22 7 -29 13 -20 4 7 2 27 -6 45
-7 18 -11 35 -7 38 3 3 0 6 -7 6 -9 0 -11 -6 -6 -17z"/>
<path d="M2922 1920 c0 -17 3 -30 7 -30 10 0 11 49 1 55 -4 2 -7 -9 -8 -25z"/>
<path d="M810 1929 c0 -5 5 -7 10 -4 6 3 10 8 10 11 0 2 -4 4 -10 4 -5 0 -10
-5 -10 -11z"/>
<path d="M915 1930 c-3 -6 1 -7 9 -4 18 7 21 14 7 14 -6 0 -13 -4 -16 -10z"/>
<path d="M2793 1934 c10 -10 -12 -44 -26 -40 -6 1 -9 1 -4 -1 4 -3 4 -10 0
-16 -3 -7 6 -1 20 12 28 25 36 51 15 51 -6 0 -8 -3 -5 -6z"/>
<path d="M687 1913 c-4 -3 -7 -18 -6 -32 1 -26 1 -25 10 3 9 31 7 41 -4 29z"/>
<path d="M825 1910 c-3 -5 -1 -10 4 -10 6 0 11 5 11 10 0 6 -2 10 -4 10 -3 0
-8 -4 -11 -10z"/>
<path d="M1200 1865 c-7 -8 -8 -15 -2 -15 5 0 15 7 22 15 7 8 8 15 2 15 -5 0
-15 -7 -22 -15z"/>
<path d="M2445 1870 c3 -5 12 -7 20 -3 8 3 15 0 15 -7 0 -6 5 -8 11 -5 14 9 5
17 -26 20 -14 2 -23 -1 -20 -5z"/>
<path d="M848 1863 c6 -2 10 -8 8 -12 -3 -4 4 -7 14 -8 10 -1 21 5 24 14 5 13
4 14 -8 4 -10 -8 -16 -9 -21 -1 -3 5 -12 10 -18 9 -9 0 -8 -2 1 -6z"/>
<path d="M2767 1840 c-3 -14 -2 -29 5 -35 8 -7 9 -5 5 7 -4 12 -2 15 9 11 7
-3 14 0 14 7 0 6 -4 9 -9 5 -5 -3 -11 3 -13 12 -3 14 -5 12 -11 -7z"/>
<path d="M2403 1843 c-14 -5 -18 -23 -5 -23 5 0 17 7 28 15 14 11 15 14 4 14
-8 0 -21 -3 -27 -6z"/>
<path d="M583 1800 c0 -25 2 -35 4 -22 2 12 2 32 0 45 -2 12 -4 2 -4 -23z"/>
<path d="M666 1816 c-3 -13 -2 -35 3 -48 7 -18 9 -14 8 25 0 53 -2 57 -11 23z"/>
<path d="M1159 1824 c-11 -13 -24 -53 -14 -42 2 1 3 7 4 11 0 5 8 15 18 22 10
7 15 16 12 19 -3 4 -12 -1 -20 -10z"/>
<path d="M563 1765 c0 -38 2 -53 4 -32 2 20 2 52 0 70 -2 17 -4 1 -4 -38z"/>
<path d="M860 1821 c0 -10 30 -24 37 -17 3 2 -5 9 -16 16 -12 6 -21 7 -21 1z"/>
<path d="M2346 1810 c-11 -3 -15 -9 -10 -12 5 -3 18 -2 28 2 11 3 15 9 10 12
-5 3 -18 2 -28 -2z"/>
<path d="M2512 1808 c2 -6 10 -13 16 -14 7 -1 8 0 2 3 -5 2 -8 9 -4 14 3 5 0
9 -6 9 -7 0 -10 -5 -8 -12z"/>
<path d="M2970 1805 c0 -8 2 -15 4 -15 2 0 6 7 10 15 3 8 1 15 -4 15 -6 0 -10
-7 -10 -15z"/>
<path d="M2790 1799 c0 -5 5 -7 10 -4 6 3 10 8 10 11 0 2 -4 4 -10 4 -5 0 -10
-5 -10 -11z"/>
<path d="M890 1786 c0 -3 9 -10 20 -16 11 -6 20 -8 20 -6 0 3 -9 10 -20 16
-11 6 -20 8 -20 6z"/>
<path d="M2293 1783 c9 -2 23 -2 30 0 6 3 -1 5 -18 5 -16 0 -22 -2 -12 -5z"/>
<path d="M2809 1788 c-5 -18 -6 -38 -1 -34 7 8 12 36 6 36 -2 0 -4 -1 -5 -2z"/>
<path d="M2911 1774 c0 -11 3 -14 6 -6 3 7 2 16 -1 19 -3 4 -6 -2 -5 -13z"/>
<path d="M2233 1773 c9 -2 23 -2 30 0 6 3 -1 5 -18 5 -16 0 -22 -2 -12 -5z"/>
<path d="M2530 1769 c0 -5 5 -7 10 -4 6 3 10 8 10 11 0 2 -4 4 -10 4 -5 0 -10
-5 -10 -11z"/>
<path d="M2201 1761 c-1 -7 15 -35 34 -61 19 -26 31 -51 27 -55 -4 -5 -1 -5 6
-1 10 6 8 14 -5 37 -10 17 -25 38 -34 48 -9 9 -19 23 -22 31 -4 12 -6 12 -6 1z"/>
<path d="M1113 1753 c4 -6 0 -13 -8 -17 -17 -6 -21 -26 -5 -26 16 0 32 38 18
46 -6 4 -8 3 -5 -3z"/>
<path d="M2726 1751 c-4 -5 -2 -12 3 -15 5 -4 12 -2 15 3 4 5 2 12 -3 15 -5 4
-12 2 -15 -3z"/>
<path d="M930 1742 c0 -5 7 -15 15 -22 8 -7 15 -8 15 -2 0 5 -7 15 -15 22 -8
7 -15 8 -15 2z"/>
<path d="M2819 1738 c-5 -18 -6 -38 -1 -34 7 8 12 36 6 36 -2 0 -4 -1 -5 -2z"/>
<path d="M675 1720 c3 -5 8 -10 11 -10 2 0 4 5 4 10 0 6 -5 10 -11 10 -5 0 -7
-4 -4 -10z"/>
<path d="M2698 1708 c-7 -13 -13 -27 -13 -33 -1 -5 -6 -9 -11 -8 -6 1 -11 -5
-11 -13 0 -10 7 -9 24 8 12 12 21 23 18 26 -2 3 0 13 6 23 5 11 7 19 5 19 -3
0 -11 -10 -18 -22z"/>
<path d="M2900 1714 c0 -8 5 -12 10 -9 6 3 10 10 10 16 0 5 -4 9 -10 9 -5 0
-10 -7 -10 -16z"/>
<path d="M2934 1652 c1 -44 3 -78 6 -76 8 9 10 126 1 141 -4 9 -8 -18 -7 -65z"/>
<path d="M2550 1709 c0 -5 5 -7 10 -4 6 3 10 8 10 11 0 2 -4 4 -10 4 -5 0 -10
-5 -10 -11z"/>
<path d="M592 1690 c0 -14 2 -19 5 -12 2 6 2 18 0 25 -3 6 -5 1 -5 -13z"/>
<path d="M652 1690 c0 -14 2 -19 5 -12 2 6 2 18 0 25 -3 6 -5 1 -5 -13z"/>
<path d="M970 1704 c0 -6 11 -21 25 -34 14 -13 25 -20 25 -15 0 5 12 -2 26
-16 26 -24 26 -24 15 -1 -10 19 -16 23 -36 22 -3 0 -17 12 -30 27 -13 16 -25
23 -25 17z"/>
<path d="M680 1689 c0 -5 5 -7 10 -4 6 3 10 8 10 11 0 2 -4 4 -10 4 -5 0 -10
-5 -10 -11z"/>
<path d="M2970 1676 c0 -31 6 -34 13 -6 3 11 1 23 -4 26 -5 3 -9 -6 -9 -20z"/>
<path d="M816 1677 c3 -10 9 -15 12 -12 3 3 0 11 -7 18 -10 9 -11 8 -5 -6z"/>
<path d="M2560 1679 c0 -5 5 -7 10 -4 6 3 10 8 10 11 0 2 -4 4 -10 4 -5 0 -10
-5 -10 -11z"/>
<path d="M2897 1683 c-10 -9 -9 -23 1 -23 5 0 9 7 9 15 0 17 -1 18 -10 8z"/>
<path d="M1077 1659 c4 -13 8 -18 11 -10 2 7 -1 18 -6 23 -8 8 -9 4 -5 -13z"/>
<path d="M2830 1680 c-8 -26 -7 -41 2 -32 6 6 8 16 5 24 -3 7 -6 11 -7 8z"/>
<path d="M2575 1650 c-3 -5 -1 -10 4 -10 6 0 11 5 11 10 0 6 -2 10 -4 10 -3 0
-8 -4 -11 -10z"/>
<path d="M801 1643 c0 -4 4 -17 9 -28 8 -19 9 -19 9 2 1 12 -3 25 -9 28 -5 3
-10 3 -9 -2z"/>
<path d="M2883 1643 c4 -3 2 -12 -5 -20 -8 -11 -8 -17 2 -26 10 -10 12 -9 7 5
-3 10 -2 20 3 23 14 9 12 25 -2 25 -6 0 -8 -3 -5 -7z"/>
<path d="M712 1610 c10 -30 25 -46 34 -37 3 2 -1 11 -9 18 -14 14 -17 22 -17
39 0 6 -4 10 -9 10 -6 0 -6 -12 1 -30z"/>
<path d="M2626 1622 c-14 -14 -18 -15 -25 -3 -5 7 -11 9 -14 4 -3 -5 2 -14 12
-20 13 -8 23 -7 41 7 12 9 18 20 13 23 -5 3 -17 -2 -27 -11z"/>
<path d="M2975 1630 c3 -5 8 -10 11 -10 2 0 4 5 4 10 0 6 -5 10 -11 10 -5 0
-7 -4 -4 -10z"/>
<path d="M576 1614 c-3 -9 -2 -23 4 -32 7 -14 9 -10 10 16 0 35 -5 41 -14 16z"/>
<path d="M1095 1618 c11 -8 27 -16 35 -16 30 -2 82 -12 89 -16 4 -3 25 -1 47
4 21 4 56 11 78 15 21 3 36 8 34 11 -3 2 -31 -1 -62 -7 -32 -6 -65 -10 -75
-11 -29 0 -112 15 -146 27 l-20 7 20 -14z"/>
<path d="M2275 1620 c3 -5 8 -10 11 -10 2 0 4 5 4 10 0 6 -5 10 -11 10 -5 0
-7 -4 -4 -10z"/>
<path d="M2821 1614 c0 -11 3 -14 6 -6 3 7 2 16 -1 19 -3 4 -6 -2 -5 -13z"/>
<path d="M606 1611 c-4 -7 -5 -15 -2 -18 9 -9 19 4 14 18 -4 11 -6 11 -12 0z"/>
<path d="M2982 1590 c0 -14 2 -19 5 -12 2 6 2 18 0 25 -3 6 -5 1 -5 -13z"/>
<path d="M1366 1585 c-9 -26 -7 -32 5 -12 6 10 9 21 6 23 -2 3 -7 -2 -11 -11z"/>
<path d="M2564 1575 c-12 -13 -20 -26 -18 -28 3 -3 -7 -7 -21 -11 -23 -6 -36
-26 -16 -26 16 0 76 55 79 73 4 21 2 21 -24 -8z"/>
<path d="M651 1562 c-1 -35 -21 -36 -21 -1 0 10 -4 19 -9 19 -14 0 0 -48 15
-54 18 -7 27 14 21 46 -3 17 -5 15 -6 -10z"/>
<path d="M795 1556 c2 -21 6 -41 9 -44 9 -9 6 41 -4 63 -7 15 -8 10 -5 -19z"/>
<path d="M1056 1581 c-4 -5 -2 -20 3 -33 8 -21 9 -20 9 10 -1 34 -3 38 -12 23z"/>
<path d="M2297 1573 c-4 -3 -7 -11 -7 -17 0 -6 5 -5 12 2 6 6 9 14 7 17 -3 3
-9 2 -12 -2z"/>
<path d="M2863 1568 c3 -9 1 -19 -6 -22 -9 -3 -9 -5 0 -5 18 -1 27 19 13 32
-10 9 -12 8 -7 -5z"/>
<path d="M2599 1558 c-5 -18 -6 -38 -1 -34 7 8 12 36 6 36 -2 0 -4 -1 -5 -2z"/>
<path d="M585 1515 c4 -22 12 -45 16 -51 5 -6 7 -20 3 -30 -4 -15 -4 -16 4 -4
7 10 6 31 -2 62 -15 59 -30 76 -21 23z"/>
<path d="M760 1538 c0 -9 5 -20 11 -23 17 -11 18 -2 3 19 -12 17 -14 17 -14 4z"/>
<path d="M1353 1518 c-1 -31 0 -32 10 -10 7 15 7 26 0 33 -7 7 -10 -1 -10 -23z"/>
<path d="M2822 1520 c0 -14 2 -19 5 -12 2 6 2 18 0 25 -3 6 -5 1 -5 -13z"/>
<path d="M2972 1520 c0 -14 2 -19 5 -12 2 6 2 18 0 25 -3 6 -5 1 -5 -13z"/>
<path d="M2303 1510 c-1 -11 2 -22 6 -24 4 -3 7 4 8 14 1 11 -2 22 -6 24 -4 3
-7 -4 -8 -14z"/>
<path d="M662 1495 c0 -16 2 -22 5 -12 2 9 2 23 0 30 -3 6 -5 -1 -5 -18z"/>
<path d="M1982 1481 c-1 -22 2 -43 8 -46 5 -3 8 11 6 35 -3 44 -1 47 25 24 9
-8 23 -16 31 -18 7 -1 19 -5 25 -9 7 -5 23 -10 35 -13 13 -3 34 -8 48 -11 14
-3 48 -7 77 -8 28 0 60 -8 70 -16 16 -12 17 -12 6 2 -7 9 -10 18 -7 22 3 3
-20 5 -53 5 -32 -1 -74 2 -93 6 -19 4 -39 9 -45 10 -5 1 -20 8 -32 14 -13 7
-23 10 -23 7 0 -4 -12 3 -26 14 -39 31 -51 26 -52 -18z"/>
<path d="M2455 1497 c-11 -7 -40 -19 -65 -26 -67 -20 -69 -22 -20 -16 47 6
119 35 120 48 0 11 -13 9 -35 -6z"/>
<path d="M2607 1503 c-9 -16 -8 -173 1 -173 5 0 9 41 9 90 -1 90 -2 97 -10 83z"/>
<path d="M790 1452 l4 -47 7 40 c3 22 7 35 8 28 0 -6 24 -30 51 -53 28 -23 47
-35 44 -26 -3 9 -10 16 -14 16 -5 0 -23 16 -42 36 -55 59 -64 60 -58 6z"/>
<path d="M2832 1450 c0 -14 2 -19 5 -12 2 6 2 18 0 25 -3 6 -5 1 -5 -13z"/>
<path d="M1631 1447 c-14 -18 -2 -30 15 -16 10 8 17 3 29 -20 8 -17 21 -31 28
-31 8 0 7 4 -3 10 -8 5 -11 10 -7 10 4 0 -1 10 -12 22 -11 11 -18 25 -15 30 9
14 -23 9 -35 -5z"/>
<path d="M660 1440 c0 -5 5 -10 11 -10 5 0 7 5 4 10 -3 6 -8 10 -11 10 -2 0
-4 -4 -4 -10z"/>
<path d="M1356 1425 c-3 -9 -6 -26 -5 -38 1 -14 4 -9 9 13 9 37 7 52 -4 25z"/>
<path d="M2790 1420 c-6 -11 -7 -20 -3 -20 4 0 -1 -6 -12 -13 -12 -9 -14 -16
-7 -21 6 -3 16 3 22 14 6 11 8 20 5 20 -3 0 -1 9 5 20 6 11 8 20 6 20 -3 0
-10 -9 -16 -20z"/>
<path d="M616 1403 c-6 -14 -5 -15 5 -6 7 7 10 15 7 18 -3 3 -9 -2 -12 -12z"/>
<path d="M1052 1400 c-2 -36 9 -71 20 -64 5 4 5 10 -1 17 -5 7 -11 26 -14 42
-3 26 -4 26 -5 5z"/>
<path d="M1590 1395 c-13 -14 -19 -25 -13 -25 12 0 48 38 41 45 -2 3 -15 -6
-28 -20z"/>
<path d="M1970 1406 c0 -8 4 -17 9 -21 6 -3 9 4 8 15 -1 23 -17 28 -17 6z"/>
<path d="M2822 1390 c0 -14 2 -19 5 -12 2 6 2 18 0 25 -3 6 -5 1 -5 -13z"/>
<path d="M2300 1385 c0 -8 4 -15 8 -15 5 0 9 7 9 15 0 8 -4 15 -9 15 -4 0 -8
-7 -8 -15z"/>
<path d="M671 1374 c0 -11 5 -29 13 -39 7 -10 12 -28 9 -39 -3 -20 -3 -20 6
-1 6 13 5 27 -4 40 -7 12 -15 30 -18 40 -4 19 -5 19 -6 -1z"/>
<path d="M810 1380 c-1 -8 -1 -19 0 -25 2 -5 2 -21 1 -35 -1 -16 2 -21 9 -14
7 7 7 24 1 50 -5 21 -10 32 -11 24z"/>
<path d="M920 1382 c0 -10 34 -35 50 -37 3 0 16 -7 30 -14 23 -12 24 -12 9 4
-9 9 -23 17 -32 19 -9 1 -25 10 -37 21 -11 10 -20 13 -20 7z"/>
<path d="M620 1369 c0 -5 5 -7 10 -4 6 3 10 8 10 11 0 2 -4 4 -10 4 -5 0 -10
-5 -10 -11z"/>
<path d="M2801 1370 c0 -8 4 -22 9 -30 12 -18 12 -2 0 25 -6 13 -9 15 -9 5z"/>
<path d="M2891 1353 c-10 -26 -10 -27 4 -9 8 11 15 23 15 28 0 15 -7 8 -19
-19z"/>
<path d="M2935 1369 c-4 -6 -5 -12 -2 -15 2 -3 7 2 10 11 7 17 1 20 -8 4z"/>
<path d="M712 1350 c14 -22 24 -19 15 5 -4 8 -11 15 -17 15 -6 0 -6 -7 2 -20z"/>
<path d="M1706 1355 c4 -9 15 -20 26 -26 19 -10 19 -10 3 15 -19 28 -38 35
-29 11z"/>
<path d="M1371 1344 c0 -11 3 -14 6 -6 3 7 2 16 -1 19 -3 4 -6 -2 -5 -13z"/>
<path d="M1517 1340 c-14 -11 -30 -20 -35 -20 -6 0 -14 -4 -17 -10 -10 -16 22
-12 39 5 8 8 19 15 23 15 5 0 18 7 29 15 16 12 16 14 3 15 -9 0 -28 -9 -42
-20z"/>
<path d="M2729 1334 c-13 -14 -23 -27 -21 -30 5 -9 1 -25 -6 -20 -4 2 -16 -2
-27 -10 -10 -8 -15 -14 -11 -14 5 0 3 -7 -4 -15 -7 -8 -15 -13 -19 -11 -4 3
-13 1 -20 -3 -8 -5 -9 -11 -3 -15 19 -12 133 96 138 131 3 18 1 17 -27 -13z
m21 2 c0 -2 -8 -10 -17 -17 -16 -13 -17 -12 -4 4 13 16 21 21 21 13z"/>
<path d="M1950 1330 c0 -5 5 -10 11 -10 5 0 7 5 4 10 -3 6 -8 10 -11 10 -2 0
-4 -4 -4 -10z"/>
<path d="M735 1321 c-3 -6 5 -15 17 -21 21 -10 21 -10 6 3 -10 8 -15 17 -11
20 3 4 4 7 0 7 -3 0 -8 -4 -12 -9z"/>
<path d="M1046 1312 c12 -9 24 -24 27 -32 4 -12 6 -11 6 3 1 18 16 23 26 8 3
-6 13 -10 23 -10 9 0 31 -3 47 -7 51 -10 160 -14 191 -5 20 5 4 8 -56 8 -79
-1 -117 3 -180 19 -14 3 -33 7 -43 8 -9 1 -23 8 -29 14 -7 7 -17 12 -22 12 -6
0 -1 -8 10 -18z"/>
<path d="M1757 1287 c27 -35 79 -78 86 -71 12 12 18 -38 6 -52 -19 -23 -6 -25
21 -2 14 11 19 16 11 12 -10 -5 -13 -3 -8 8 3 9 -3 24 -14 34 -10 9 -19 14
-19 10 0 -4 -14 9 -31 29 -18 20 -41 41 -52 47 l-20 11 20 -26z"/>
<path d="M1410 1290 c-12 -8 -9 -10 13 -10 15 0 27 5 27 10 0 13 -20 13 -40 0z"/>
<path d="M2286 1287 c3 -10 9 -15 12 -12 3 3 0 11 -7 18 -10 9 -11 8 -5 -6z"/>
<path d="M2905 1289 c-4 -6 -5 -12 -2 -15 2 -3 7 2 10 11 7 17 1 20 -8 4z"/>
<path d="M820 1280 c0 -5 5 -10 10 -10 6 0 10 5 10 10 0 6 -4 10 -10 10 -5 0
-10 -4 -10 -10z"/>
<path d="M2850 1270 c-6 -11 -8 -20 -6 -20 3 0 10 9 16 20 6 11 8 20 6 20 -3
0 -10 -9 -16 -20z"/>
<path d="M765 1270 c3 -5 8 -10 11 -10 2 0 4 5 4 10 0 6 -5 10 -11 10 -5 0 -7
-4 -4 -10z"/>
<path d="M1927 1274 c-3 -3 -3 -12 0 -20 3 -8 2 -14 -3 -12 -5 2 -10 -1 -11
-6 -1 -5 -7 -13 -15 -17 -7 -5 -8 -9 -2 -9 16 0 47 37 40 49 -3 5 0 12 6 14 7
3 8 6 2 6 -6 1 -13 -2 -17 -5z"/>
<path d="M1087 1264 c-4 -4 -7 -14 -7 -23 0 -11 3 -12 11 -4 6 6 10 16 7 23
-2 6 -7 8 -11 4z"/>
<path d="M785 1250 c-3 -5 1 -13 9 -16 9 -3 13 -11 9 -17 -3 -6 -1 -7 5 -3 7
4 12 1 12 -7 0 -8 7 -21 17 -28 15 -13 15 -12 3 11 -23 44 -48 71 -55 60z"/>
<path d="M830 1247 c0 -8 9 -22 19 -31 19 -17 19 -17 14 3 -3 11 -10 18 -16
14 -6 -4 -8 0 -4 10 3 10 2 17 -3 17 -6 0 -10 -6 -10 -13z"/>
<path d="M1390 1254 c0 -12 35 -64 43 -64 4 0 6 -4 3 -9 -3 -4 1 -16 8 -26 10
-14 15 -15 21 -5 5 9 4 11 -3 6 -7 -4 -13 -2 -13 3 -4 30 -30 81 -41 81 -5 0
-6 5 -3 10 3 6 1 10 -4 10 -6 0 -11 -3 -11 -6z"/>
<path d="M2275 1251 c-3 -5 -1 -12 5 -16 5 -3 10 1 10 9 0 18 -6 21 -15 7z"/>
<path d="M2776 1247 c3 -10 9 -15 12 -12 3 3 0 11 -7 18 -10 9 -11 8 -5 -6z"/>
<path d="M676 1217 c3 -10 9 -15 12 -12 3 3 0 11 -7 18 -10 9 -11 8 -5 -6z"/>
<path d="M1096 1215 c-3 -8 -1 -15 4 -15 6 0 10 7 10 15 0 8 -2 15 -4 15 -2 0
-6 -7 -10 -15z"/>
<path d="M1899 1182 c7 -12 17 -23 24 -24 7 0 17 -2 23 -2 6 -1 19 -7 28 -15
9 -8 19 -11 23 -8 3 3 20 -1 37 -9 30 -15 30 -15 14 2 -9 9 -25 18 -35 19 -10
1 -28 7 -40 13 -13 7 -23 10 -23 7 0 -4 -14 4 -31 16 l-31 22 11 -21z"/>
<path d="M2560 1190 c-9 -6 -10 -10 -3 -10 6 0 15 5 18 10 8 12 4 12 -15 0z"/>
<path d="M2789 1183 c-10 -12 -10 -14 -1 -9 6 4 12 2 12 -3 0 -17 -18 -13 -29
7 -9 15 -10 14 -8 -5 1 -13 6 -23 11 -23 5 0 -6 -17 -25 -37 -19 -21 -23 -29
-9 -18 51 41 86 90 71 99 -5 3 -15 -2 -22 -11z"/>
<path d="M690 1183 c0 -6 8 -17 18 -24 16 -13 16 -13 2 6 -8 11 -16 22 -17 24
-2 2 -3 0 -3 -6z"/>
<path d="M746 1177 c3 -10 9 -15 12 -12 3 3 0 11 -7 18 -10 9 -11 8 -5 -6z"/>
<path d="M874 1165 c2 -16 8 -31 14 -33 6 -2 9 -9 6 -17 -3 -7 -1 -16 5 -20 7
-3 8 0 5 10 -5 11 -2 14 12 9 11 -3 7 2 -9 13 -15 11 -24 22 -21 26 3 3 1 14
-5 24 -8 15 -9 13 -7 -12z"/>
<path d="M1100 1176 c0 -8 4 -17 8 -20 4 -2 8 4 8 15 0 10 -4 19 -8 19 -4 0
-8 -6 -8 -14z"/>
<path d="M2244 1174 c3 -7 0 -14 -7 -17 -7 -2 -8 -5 0 -10 5 -3 15 4 21 17 8
18 7 23 -4 23 -8 0 -13 -6 -10 -13z"/>
<path d="M2850 1170 c-6 -11 -8 -20 -6 -20 3 0 10 9 16 20 6 11 8 20 6 20 -3
0 -10 -9 -16 -20z"/>
<path d="M2500 1160 c0 -13 20 -13 40 0 12 8 9 10 -12 10 -16 0 -28 -4 -28
-10z"/>
<path d="M2566 1147 c3 -10 9 -15 12 -12 3 3 0 11 -7 18 -10 9 -11 8 -5 -6z"/>
<path d="M2446 1141 c-3 -4 -17 -6 -31 -3 -15 2 -25 0 -25 -7 0 -15 38 -13 75
4 26 12 27 13 8 14 -12 1 -24 -3 -27 -8z"/>
<path d="M1120 1137 c0 -5 7 -15 15 -24 8 -8 12 -19 9 -25 -4 -6 1 -17 10 -24
15 -11 22 -27 25 -57 1 -5 6 -5 11 -2 6 3 10 1 10 -4 0 -27 -2 -27 -61 -18 -9
2 -28 11 -43 20 -14 10 -26 14 -26 11 0 -4 -9 1 -20 11 -11 10 -23 15 -26 12
-4 -3 -14 3 -24 15 -22 28 -48 31 -60 8 -8 -14 -6 -21 6 -28 9 -5 15 -12 15
-15 -1 -4 1 -7 4 -7 3 0 5 2 5 5 0 3 0 10 0 15 0 6 -7 10 -15 10 -8 0 -12 6
-9 15 8 19 24 15 47 -13 10 -12 22 -20 27 -17 4 3 13 -2 20 -10 9 -11 68 -37
90 -40 3 0 10 -3 16 -7 6 -4 23 -9 39 -12 18 -3 56 -32 98 -73 39 -37 66 -62
62 -54 -5 9 -3 12 6 9 8 -3 14 -9 14 -14 0 -17 17 -35 28 -31 6 2 19 -5 28
-16 8 -11 24 -21 35 -22 11 0 26 -5 34 -10 13 -8 13 -7 1 8 -8 10 -18 16 -24
14 -5 -1 -19 5 -31 15 -129 107 -156 129 -163 131 -4 1 -7 6 -5 12 6 18 25 23
49 14 14 -5 23 -5 23 1 0 6 -6 10 -12 11 -58 5 -90 6 -76 2 9 -2 15 -10 12
-18 -5 -11 -9 -11 -24 2 -10 9 -16 21 -14 28 3 6 -6 23 -18 37 -13 14 -24 32
-26 39 -2 8 -9 19 -16 24 -7 6 -11 15 -9 21 2 6 -5 22 -16 35 -11 13 -20 20
-21 16z m100 -167 c0 -5 -5 -10 -11 -10 -5 0 -7 5 -4 10 3 6 8 10 11 10 2 0 4
-4 4 -10z m100 -105 c13 -14 21 -25 18 -25 -2 0 -15 11 -28 25 -13 14 -21 25
-18 25 2 0 15 -11 28 -25z"/>
<path d="M1470 1131 c0 -6 20 -33 45 -59 25 -26 45 -42 45 -37 0 6 -20 32 -45
59 -25 27 -45 44 -45 37z"/>
<path d="M1777 1104 c-26 -18 -43 -35 -37 -39 5 -3 20 5 32 17 13 13 25 23 28
23 14 1 41 23 34 27 -5 3 -30 -9 -57 -28z"/>
<path d="M2069 1127 c7 -9 23 -16 35 -15 11 0 30 -3 41 -7 15 -6 17 -5 10 3
-6 7 -25 14 -42 15 -16 2 -36 8 -44 12 -12 8 -12 6 0 -8z"/>
<path d="M2229 1116 c7 -9 28 -13 59 -11 26 1 58 3 72 4 18 1 21 4 13 12 -7 7
-19 8 -30 4 -26 -11 -103 -14 -103 -4 0 5 -5 9 -11 9 -8 0 -8 -4 0 -14z"/>
<path d="M2170 1111 c0 -5 9 -11 20 -14 20 -5 20 -6 -4 -32 -14 -15 -23 -32
-20 -37 7 -11 21 1 26 22 2 8 9 20 17 26 11 9 10 13 -4 27 -18 18 -35 22 -35
8z"/>
<path d="M2536 1105 c-3 -8 -2 -22 1 -32 4 -10 2 -14 -5 -9 -6 3 -13 2 -16 -3
-4 -5 2 -8 11 -6 12 1 17 10 16 24 -2 13 1 20 7 16 6 -3 7 1 4 9 -8 20 -10 20
-18 1z"/>
<path d="M2774 1083 c-13 -20 -13 -25 -2 -16 8 7 17 11 20 8 3 -3 11 3 19 12
13 17 13 17 -5 3 -18 -14 -19 -13 -13 3 9 25 2 21 -19 -10z"/>
<path d="M2679 1063 l-24 -28 28 24 c15 14 27 26 27 28 0 8 -8 1 -31 -24z"/>
<path d="M2705 1059 c-4 -6 -5 -12 -2 -15 2 -3 7 2 10 11 7 17 1 20 -8 4z"/>
<path d="M780 1040 c6 -11 13 -20 16 -20 2 0 0 9 -6 20 -6 11 -13 20 -16 20
-2 0 0 -9 6 -20z"/>
<path d="M820 1045 c27 -35 83 -91 72 -70 -6 11 -28 36 -49 55 -21 19 -31 26
-23 15z"/>
<path d="M1690 1050 c-20 -12 -9 -21 18 -13 12 3 19 9 16 14 -7 11 -15 11 -34
-1z"/>
<path d="M2493 1027 c-3 -5 -1 -13 5 -19 7 -7 13 -4 21 9 8 15 7 20 -5 20 -8
0 -17 -4 -21 -10z"/>
<path d="M1627 1015 c-14 -7 -28 -11 -31 -7 -3 3 -6 0 -6 -6 0 -7 -7 -9 -17
-5 -10 3 -15 3 -12 -1 12 -13 59 -17 57 -4 -2 6 11 14 27 18 17 3 25 8 19 12
-6 4 -22 1 -37 -7z"/>
<path d="M2640 1023 c0 -7 -3 -12 -7 -12 -25 4 -36 -2 -25 -13 8 -8 15 -8 27
2 12 10 15 10 15 0 0 -8 3 -11 6 -7 3 3 1 14 -5 24 -6 10 -11 12 -11 6z"/>
<path d="M2680 1010 c-6 -11 -8 -20 -6 -20 3 0 10 9 16 20 6 11 8 20 6 20 -3
0 -10 -9 -16 -20z"/>
<path d="M2134 992 c-10 -15 -19 -30 -19 -33 0 -3 -13 -17 -30 -31 -16 -15
-27 -29 -24 -33 7 -6 72 59 70 69 -1 4 8 15 20 25 14 11 18 20 12 24 -6 4 -19
-6 -29 -21z"/>
<path d="M2724 1009 c-8 -14 14 -19 25 -6 8 10 7 14 -5 14 -8 0 -17 -4 -20 -8z"/>
<path d="M828 983 c11 -16 30 -37 43 -48 12 -11 5 1 -16 28 -43 52 -57 63 -27
20z"/>
<path d="M984 985 c1 -9 8 -20 15 -24 7 -5 12 -12 12 -17 -1 -5 5 -9 12 -9 6
0 12 -6 12 -13 0 -7 7 -17 15 -22 8 -5 11 -10 6 -10 -5 0 -3 -7 4 -15 7 -8 16
-13 20 -10 4 2 15 -4 25 -15 10 -11 22 -20 27 -20 5 0 -14 20 -41 44 -27 24
-47 46 -45 49 3 2 -10 17 -28 32 -18 15 -31 30 -30 32 2 3 1 7 -1 10 -3 3 -4
-3 -3 -12z"/>
<path d="M2453 966 c-17 -20 -17 -20 0 -7 19 15 24 2 5 -17 -7 -7 -9 -12 -6
-12 4 0 16 13 27 28 16 22 17 29 6 29 -8 0 -23 -10 -32 -21z"/>
<path d="M2565 976 c-11 -8 -14 -16 -8 -19 6 -4 18 0 28 7 11 8 14 16 8 19 -6
4 -18 0 -28 -7z"/>
<path d="M1485 970 c-27 -7 -27 -8 -5 -8 14 0 39 4 55 8 27 7 27 8 5 8 -14 0
-38 -4 -55 -8z"/>
<path d="M1630 968 c0 -6 2 -9 5 -6 3 3 22 -10 42 -29 21 -18 42 -32 48 -29 6
2 17 -5 24 -16 6 -10 17 -18 24 -15 6 2 20 -5 31 -15 11 -10 25 -17 30 -16 6
1 21 -3 34 -10 12 -7 22 -9 22 -3 0 9 -27 24 -46 26 -6 0 -18 6 -27 13 -9 8
-23 15 -31 16 -8 1 -24 10 -36 21 -11 10 -20 14 -20 10 0 -5 -13 4 -30 20 -16
16 -30 25 -30 19 0 -5 -5 -1 -11 9 -11 19 -29 23 -29 5z"/>
<path d="M2615 944 c-9 -15 -12 -23 -6 -20 11 7 35 46 28 46 -3 0 -12 -12 -22
-26z"/>
<path d="M2669 953 c-13 -16 -12 -17 4 -4 16 13 21 21 13 21 -2 0 -10 -8 -17
-17z"/>
<path d="M930 935 c13 -14 26 -25 28 -25 3 0 -5 11 -18 25 -13 14 -26 25 -28
25 -3 0 5 -11 18 -25z"/>
<path d="M1375 950 c-27 -7 -27 -8 -5 -8 14 0 39 4 55 8 27 7 27 8 5 8 -14 0
-38 -4 -55 -8z"/>
<path d="M2515 942 c-5 -4 -11 -13 -12 -19 -2 -10 3 -10 22 -1 13 6 22 15 19
19 -6 11 -16 11 -29 1z"/>
<path d="M2679 923 l-24 -28 28 24 c15 14 27 26 27 28 0 8 -8 1 -31 -24z"/>
<path d="M2399 903 l-24 -28 28 24 c15 14 27 26 27 28 0 8 -8 1 -31 -24z"/>
<path d="M2448 902 c5 -15 34 -12 39 4 2 7 -6 11 -20 10 -16 0 -23 -6 -19 -14z"/>
<path d="M970 903 c0 -15 38 -46 48 -39 6 3 12 -1 15 -8 3 -8 15 -20 26 -26
17 -8 19 -8 15 4 -6 17 -54 51 -54 39 0 -5 -4 -3 -8 2 -13 19 -42 37 -42 28z"/>
<path d="M2559 873 l-24 -28 28 24 c25 23 32 31 24 31 -2 0 -14 -12 -28 -27z"/>
<path d="M936 868 c10 -14 21 -24 23 -22 3 3 -6 15 -18 27 l-24 22 19 -27z"/>
<path d="M2006 861 c-21 -17 -43 -31 -49 -31 -6 0 -7 -3 -4 -6 4 -4 19 2 34
12 15 10 34 19 41 20 19 3 25 11 20 24 -2 7 -19 -1 -42 -19z"/>
<path d="M2624 868 l-19 -23 23 19 c21 18 27 26 19 26 -2 0 -12 -10 -23 -22z"/>
<path d="M975 860 c10 -11 20 -20 23 -20 3 0 -3 9 -13 20 -10 11 -20 20 -23
20 -3 0 3 -9 13 -20z"/>
<path d="M2405 870 c-13 -6 -15 -9 -5 -9 8 0 22 4 30 9 18 12 2 12 -25 0z"/>
<path d="M2354 834 c-18 -14 -18 -15 4 -4 12 6 22 13 22 15 0 8 -5 6 -26 -11z"/>
<path d="M989 817 c25 -27 43 -39 22 -14 -6 8 -7 18 -3 23 4 5 3 6 -2 2 -5 -4
-16 -2 -25 4 -9 7 -5 0 8 -15z"/>
<path d="M1900 830 c0 -5 10 -10 23 -10 18 0 19 2 7 10 -19 13 -30 13 -30 0z"/>
<path d="M2288 833 c6 -2 18 -2 25 0 6 3 1 5 -13 5 -14 0 -19 -2 -12 -5z"/>
<path d="M2509 819 c-23 -19 -23 -20 -2 -10 12 6 25 16 28 21 10 16 -1 12 -26
-11z"/>
<path d="M2570 819 c-22 -18 -22 -19 -3 -10 12 6 25 16 28 21 9 15 3 12 -25
-11z"/>
<path d="M1094 822 c9 -15 51 -35 81 -37 11 -1 29 -5 40 -9 11 -4 0 4 -25 17
-25 13 -51 21 -58 19 -7 -2 -20 2 -29 9 -13 11 -15 11 -9 1z"/>
<path d="M2235 820 c-4 -6 3 -10 14 -10 25 0 27 6 6 13 -8 4 -17 2 -20 -3z"/>
<path d="M2009 806 c10 -12 30 -16 82 -15 38 1 66 5 64 10 -3 4 -29 7 -58 7
-29 -1 -63 2 -77 7 -22 7 -23 6 -11 -9z"/>
<path d="M2175 810 c-4 -6 6 -10 22 -10 22 0 25 2 13 10 -19 12 -27 12 -35 0z"/>
<path d="M1034 796 c2 -17 36 -45 36 -30 0 3 9 -4 19 -17 11 -13 23 -20 27
-16 5 5 -2 17 -16 27 -14 10 -26 17 -29 15 -2 -2 -12 6 -22 18 -16 19 -17 20
-15 3z"/>
<path d="M1960 806 c0 -2 9 -6 20 -9 11 -3 18 -1 14 4 -5 9 -34 13 -34 5z"/>
<path d="M2310 801 c-8 -6 -18 -7 -24 -4 -5 3 -6 1 -2 -5 5 -9 13 -9 27 -2 10
6 19 13 19 15 0 7 -3 6 -20 -4z"/>
<path d="M1895 789 c-10 -15 10 -17 34 -4 l24 13 -27 0 c-14 0 -29 -4 -31 -9z"/>
<path d="M2450 775 c-14 -8 -20 -14 -15 -14 6 0 21 6 35 14 14 8 21 14 15 14
-5 0 -21 -6 -35 -14z"/>
<path d="M2516 775 c-11 -8 -16 -15 -10 -15 5 0 18 7 28 15 11 8 16 15 10 15
-5 0 -18 -7 -28 -15z"/>
<path d="M1254 761 c20 -22 36 -27 36 -13 0 5 -12 14 -27 21 -28 13 -28 13 -9
-8z"/>
<path d="M1851 771 c-8 -5 -9 -11 -3 -15 14 -8 43 4 36 15 -7 11 -15 11 -33 0z"/>
<path d="M2233 768 c-13 -6 -23 -14 -23 -18 0 -5 -12 -11 -27 -15 -24 -6 -26
-8 -10 -16 18 -10 45 -1 46 16 1 6 4 10 9 10 22 2 52 18 47 26 -7 11 -14 11
-42 -3z"/>
<path d="M1300 751 c0 -11 31 -24 39 -16 3 3 -1 10 -9 15 -19 12 -30 12 -30 1z"/>
<path d="M1210 735 c7 -8 17 -15 22 -15 5 0 3 7 -6 15 -8 8 -18 15 -22 15 -3
0 -1 -7 6 -15z"/>
<path d="M1350 742 c0 -12 39 -27 47 -18 4 3 11 1 18 -4 6 -5 32 -12 56 -15
41 -5 42 -4 19 8 -15 8 -28 9 -31 4 -4 -5 -8 -4 -10 2 -2 6 -18 13 -34 15 -17
2 -38 7 -47 11 -10 4 -18 3 -18 -3z"/>
<path d="M1510 746 c0 -3 9 -10 20 -16 11 -6 20 -8 20 -6 0 3 -9 10 -20 16
-11 6 -20 8 -20 6z"/>
<path d="M1774 739 c-3 -5 -9 -7 -14 -4 -5 3 -11 1 -15 -5 -9 -14 34 -12 70 4
l30 13 -32 1 c-18 0 -35 -4 -39 -9z"/>
<path d="M2390 740 c-8 -5 -10 -10 -5 -10 6 0 17 5 25 10 8 5 11 10 5 10 -5 0
-17 -5 -25 -10z"/>
<path d="M2464 734 c-18 -14 -18 -15 4 -4 12 6 22 13 22 15 0 8 -5 6 -26 -11z"/>
<path d="M1138 724 c6 -11 18 -26 26 -33 12 -10 14 -9 12 5 -2 10 -13 25 -26
33 -22 15 -23 15 -12 -5z"/>
<path d="M1250 722 c0 -5 10 -17 22 -28 12 -10 18 -13 14 -6 -4 6 -2 12 4 12
6 0 13 -6 16 -13 4 -11 34 -21 34 -12 0 4 -79 55 -85 55 -3 0 -5 -4 -5 -8z"/>
<path d="M1685 720 c-4 -6 6 -10 22 -10 22 0 25 2 13 10 -19 12 -27 12 -35 0z"/>
<path d="M1570 711 c0 -4 -12 -6 -27 -3 -16 2 -26 2 -23 -1 3 -3 22 -8 41 -10
20 -2 42 -7 50 -11 8 -4 6 -1 -4 7 -14 11 -15 16 -5 20 7 3 3 6 -9 6 -13 1
-23 -3 -23 -8z"/>
<path d="M1628 713 c6 -2 18 -2 25 0 6 3 1 5 -13 5 -14 0 -19 -2 -12 -5z"/>
<path d="M2338 713 c6 -2 18 -2 25 0 6 3 1 5 -13 5 -14 0 -19 -2 -12 -5z"/>
<path d="M1194 695 c1 -11 20 -29 42 -42 39 -21 73 -31 44 -13 -12 8 -12 10 5
10 16 0 15 3 -9 15 -32 17 -49 20 -26 5 13 -8 13 -10 0 -10 -8 0 -24 12 -36
28 -19 23 -22 24 -20 7z"/>
<path d="M2102 690 c-19 -10 -37 -21 -40 -25 -9 -8 30 6 44 16 6 5 13 6 17 3
9 -9 48 6 42 17 -9 13 -26 10 -63 -11z"/>
<path d="M2406 701 c-4 -5 3 -7 14 -4 23 6 26 13 6 13 -8 0 -17 -4 -20 -9z"/>
<path d="M2298 693 c7 -3 16 -2 19 1 4 3 -2 6 -13 5 -11 0 -14 -3 -6 -6z"/>
<path d="M1640 680 c8 -5 20 -10 25 -10 6 0 3 5 -5 10 -8 5 -19 10 -25 10 -5
0 -3 -5 5 -10z"/>
<path d="M1680 681 c0 -4 11 -13 25 -19 19 -9 23 -9 19 2 -6 15 -44 29 -44 17z"/>
<path d="M1739 666 c13 -15 54 -29 45 -15 -3 5 -1 9 5 9 5 0 11 -6 14 -12 4
-10 7 -10 18 0 11 10 11 12 -1 13 -43 4 -60 7 -76 13 -14 5 -15 4 -5 -8z"/>
<path d="M2171 668 c-45 -8 -51 -12 -37 -20 13 -7 21 -7 26 1 4 8 17 10 33 5
18 -4 27 -2 27 5 0 8 6 9 18 2 14 -8 19 -6 19 5 0 16 -9 16 -86 2z"/>
<path d="M2350 670 c-13 -8 -13 -10 2 -10 9 0 20 5 23 10 8 13 -5 13 -25 0z"/>
<path d="M1351 667 c2 -1 13 -9 24 -17 19 -14 19 -14 6 3 -7 9 -18 17 -24 17
-6 0 -8 -1 -6 -3z"/>
<path d="M1854 645 c8 -8 21 -15 28 -15 8 1 6 6 -6 15 -26 20 -42 19 -22 0z"/>
<path d="M1400 646 c0 -3 9 -10 20 -16 11 -6 20 -8 20 -6 0 3 -9 10 -20 16
-11 6 -20 8 -20 6z"/>
<path d="M1900 641 c0 -5 9 -7 20 -4 11 3 20 7 20 9 0 2 -9 4 -20 4 -11 0 -20
-4 -20 -9z"/>
<path d="M1950 646 c0 -2 7 -7 16 -10 8 -3 12 -2 9 4 -6 10 -25 14 -25 6z"/>
<path d="M2005 640 c3 -5 16 -10 28 -10 18 0 19 2 7 10 -20 13 -43 13 -35 0z"/>
<path d="M2290 640 c-13 -9 -13 -10 0 -10 8 0 22 5 30 10 13 9 13 10 0 10 -8
0 -22 -5 -30 -10z"/>
<path d="M2073 633 c9 -2 23 -2 30 0 6 3 -1 5 -18 5 -16 0 -22 -2 -12 -5z"/>
<path d="M1301 626 c8 -9 99 -45 99 -40 0 2 -21 14 -46 24 -45 20 -62 24 -53
16z"/>
<path d="M1464 616 c11 -9 24 -16 30 -16 12 0 7 5 -24 19 -24 11 -24 11 -6 -3z"/>
<path d="M2245 620 c-16 -7 -17 -9 -3 -9 9 -1 20 4 23 9 7 11 7 11 -20 0z"/>
<path d="M1968 613 c6 -2 18 -2 25 0 6 3 1 5 -13 5 -14 0 -19 -2 -12 -5z"/>
<path d="M2200 610 c12 -10 11 -11 -7 -7 -13 3 -23 1 -23 -5 0 -12 41 -6 41 7
0 5 -5 11 -13 13 -9 2 -8 0 2 -8z"/>
<path d="M1524 596 c11 -9 24 -16 30 -16 12 0 7 5 -24 19 -24 11 -24 11 -6 -3z"/>
<path d="M1895 600 c3 -5 11 -10 16 -10 6 0 7 5 4 10 -3 6 -11 10 -16 10 -6 0
-7 -4 -4 -10z"/>
<path d="M1780 585 l-55 -13 56 2 c31 0 55 4 52 8 -2 4 10 5 28 1 23 -4 30 -3
25 5 -9 15 -34 14 -106 -3z"/>
<path d="M2115 591 c-3 -5 0 -13 6 -17 8 -5 9 -3 4 6 -5 9 -2 10 14 5 12 -4
21 -2 21 4 0 13 -37 15 -45 2z"/>
<path d="M1411 586 c2 -2 15 -9 29 -15 24 -11 24 -11 6 3 -16 13 -49 24 -35
12z"/>
<path d="M1578 578 c5 -5 16 -8 23 -6 8 3 3 7 -10 11 -17 4 -21 3 -13 -5z"/>
<path d="M1628 573 c6 -2 18 -2 25 0 6 3 1 5 -13 5 -14 0 -19 -2 -12 -5z"/>
<path d="M1688 573 c7 -3 16 -2 19 1 4 3 -2 6 -13 5 -11 0 -14 -3 -6 -6z"/>
<path d="M2070 570 c20 -13 43 -13 35 0 -3 6 -16 10 -28 10 -18 0 -19 -2 -7
-10z"/>
<path d="M1480 560 c8 -5 20 -10 25 -10 6 0 3 5 -5 10 -8 5 -19 10 -25 10 -5
0 -3 -5 5 -10z"/>
<path d="M2013 563 c9 -2 23 -2 30 0 6 3 -1 5 -18 5 -16 0 -22 -2 -12 -5z"/>
<path d="M1525 550 c3 -4 14 -10 25 -13 11 -3 18 -2 15 3 -3 4 -14 10 -25 13
-11 3 -18 2 -15 -3z"/>
<path d="M1848 553 c7 -3 16 -2 19 1 4 3 -2 6 -13 5 -11 0 -14 -3 -6 -6z"/>
<path d="M1898 553 c6 -2 18 -2 25 0 6 3 1 5 -13 5 -14 0 -19 -2 -12 -5z"/>
<path d="M1958 553 c6 -2 18 -2 25 0 6 3 1 5 -13 5 -14 0 -19 -2 -12 -5z"/>
<path d="M1590 536 c0 -2 7 -7 16 -10 8 -3 12 -2 9 4 -6 10 -25 14 -25 6z"/>
<path d="M1636 531 c5 -6 30 -13 54 -15 34 -3 40 -2 27 5 -10 6 -23 8 -30 6
-7 -2 -23 0 -37 5 -18 7 -22 6 -14 -1z"/>
<path d="M1779 519 c-7 -4 12 -5 41 -3 29 2 55 5 57 8 8 7 -85 3 -98 -5z"/>
</g>
</svg>
